<svg width="96" height="30" fill="none" xmlns="http://www.w3.org/2000/svg"><path d="M11.232 0c-2.96 0-5.54 1.213-7.248 3.442V.587H0V30h4.364V19.4c1.745 2.073 4.173 3.208 6.83 3.208 5.919 0 10.396-5.007 10.396-11.343C21.59 4.889 17.15 0 11.232 0zm-.646 18.462c-3.946 0-6.792-3.13-6.792-7.158 0-4.146 2.846-7.158 6.792-7.158 3.795 0 6.565 3.012 6.565 7.119 0 4.107-2.77 7.197-6.565 7.197zm26.921 4.146c6.45 0 9.98-4.068 9.98-10.64V.588h-4.554v11.655c0 3.755-1.632 6.22-5.426 6.22-3.719 0-5.426-2.504-5.426-6.22V.588h-4.554V11.93c0 6.57 3.605 10.678 9.98 10.678zm27.235 0c6.45 0 9.98-4.068 9.98-10.64V.588h-4.554v11.655c0 3.755-1.631 6.22-5.426 6.22-3.718 0-5.426-2.504-5.426-6.22V.588h-4.553V11.93c0 6.57 3.605 10.678 9.98 10.678zM93.8 0c-3.454 0-6.148 1.877-7.286 4.068V.587h-4.326v21.395h4.554v-11.03c0-4.264 2.807-6.454 6.412-6.454A7.41 7.41 0 0196 5.046V.313A8.805 8.805 0 0093.8 0z" fill="#0050B9"/></svg>