<?xml version="1.0" standalone="no"?>
<!DOCTYPE svg PUBLIC "-//W3C//DTD SVG 20010904//EN"
 "http://www.w3.org/TR/2001/REC-SVG-20010904/DTD/svg10.dtd">
<svg version="1.0" xmlns="http://www.w3.org/2000/svg"
 width="3072.000000pt" height="3072.000000pt" viewBox="0 0 3072.000000 3072.000000"
 preserveAspectRatio="xMidYMid meet">
<metadata>
Created by potrace 1.14, written by Peter Selinger 2001-2017
</metadata>
<g transform="translate(0.000000,3072.000000) scale(0.100000,-0.100000)"
fill="#000000" stroke="none">
<path d="M3254 20145 c-584 -64 -1088 -267 -1521 -613 -121 -96 -302 -276
-391 -385 l-62 -78 0 450 0 451 -640 0 -640 0 0 -4705 0 -4705 700 0 700 0 0
1691 0 1691 67 -73 c696 -766 1680 -1087 2721 -888 1052 201 1926 915 2386
1950 237 532 348 1112 333 1729 -11 437 -71 793 -202 1185 -236 712 -670 1314
-1247 1726 -464 333 -989 525 -1578 579 -154 13 -476 11 -626 -5z m386 -1329
c394 -49 746 -196 1040 -433 98 -79 260 -247 338 -350 251 -331 404 -737 453
-1201 17 -170 7 -544 -20 -715 -127 -799 -618 -1449 -1296 -1717 -104 -41
-289 -95 -402 -116 -117 -22 -498 -31 -631 -15 -291 36 -586 134 -825 275
-606 356 -990 986 -1068 1750 -14 148 -7 490 15 634 102 676 428 1212 946
1555 279 185 620 302 990 340 93 10 358 5 460 -7z"/>
<path d="M29775 20153 c-113 -10 -353 -49 -455 -73 -481 -118 -963 -392 -1281
-729 -108 -113 -224 -266 -297 -388 l-52 -87 0 547 0 547 -695 0 -695 0 0
-3425 0 -3425 730 0 729 0 4 1898 c3 2015 1 1924 53 2182 107 536 405 967 850
1230 231 137 523 232 832 271 128 16 501 17 622 0 144 -19 310 -58 457 -107
72 -24 134 -44 137 -44 3 0 5 341 4 757 l-3 757 -68 18 c-87 22 -285 55 -407
68 -89 9 -374 11 -465 3z"/>
<path d="M8813 17943 c4 -2218 0 -2066 62 -2440 183 -1096 765 -1900 1663
-2298 627 -277 1457 -355 2252 -210 689 125 1290 470 1693 970 237 293 434
686 553 1098 74 258 135 633 154 957 6 98 10 930 10 2058 l0 1892 -729 0 -730
0 -4 -1982 c-3 -1797 -5 -1997 -21 -2128 -61 -521 -217 -892 -491 -1166 -263
-264 -631 -413 -1075 -433 -603 -27 -1039 114 -1365 443 -294 296 -461 711
-505 1260 -6 83 -10 823 -10 2067 l0 1939 -730 0 -731 0 4 -2027z"/>
<path d="M17523 17983 c4 -2172 0 -2049 62 -2447 78 -501 258 -980 513 -1365
133 -201 357 -447 542 -595 179 -143 478 -319 671 -397 184 -73 375 -131 554
-169 475 -98 983 -114 1465 -44 374 54 671 143 980 295 874 429 1403 1239
1559 2384 40 291 41 367 41 2372 l0 1953 -730 0 -729 0 -4 -2022 c-3 -2219 1
-2068 -63 -2378 -108 -530 -384 -924 -792 -1130 -166 -83 -386 -147 -592 -170
-139 -16 -455 -14 -591 5 -481 63 -856 288 -1099 660 -185 284 -291 648 -320
1100 -6 99 -10 879 -10 2048 l0 1887 -730 0 -731 0 4 -1987z"/>
</g>
</svg>
