<svg width="49" height="21" viewBox="0 0 49 21" fill="none" xmlns="http://www.w3.org/2000/svg">
<path fill-rule="evenodd" clip-rule="evenodd" d="M31.2302 0.510102C30.8158 -0.0420896 30.0323 -0.153842 29.4801 0.260497C28.9279 0.674835 28.8162 1.45836 29.2305 2.01055C31.6073 5.17812 34.7409 7.6531 38.3061 9.23469L1.25 9.2347C0.559646 9.2347 0 9.79434 0 10.4847C0 11.1751 0.559647 11.7347 1.25 11.7347L38.2027 11.7347C34.7087 13.3987 31.6304 15.8713 29.2397 18.9778C28.8187 19.5249 28.9209 20.3097 29.468 20.7308C30.0151 21.1518 30.7999 21.0496 31.221 20.5025C34.3576 16.4267 38.8108 13.565 43.8214 12.4053L46.9545 11.6801C48.4517 11.3335 48.4001 9.18417 46.8879 8.90998L43.9777 8.38229C38.8879 7.4594 34.3348 4.64761 31.2302 0.510102Z" fill="#0050B9"/>
</svg>
