<svg width="96" height="30" viewBox="0 0 96 30" fill="none" xmlns="http://www.w3.org/2000/svg">
<path d="M11.2316 0C8.27189 0 5.69166 1.21252 3.98417 3.44198V0.586699H0V30H4.36361V19.4003C6.10905 21.4733 8.5375 22.6076 11.1936 22.6076C17.1129 22.6076 21.5904 17.601 21.5904 11.2647C21.5904 4.88918 17.1509 0 11.2316 0ZM10.5865 18.4615C6.64028 18.4615 3.79444 15.3325 3.79444 11.3038C3.79444 7.15776 6.64028 4.14602 10.5865 4.14602C14.3809 4.14602 17.1509 7.15776 17.1509 11.2647C17.1509 15.3716 14.3809 18.4615 10.5865 18.4615Z" fill="#0050B9"/>
<path d="M37.5069 22.6076C43.9574 22.6076 47.4863 18.5398 47.4863 11.9687V0.586699H42.9329V12.2425C42.9329 15.9974 41.3013 18.4615 37.5069 18.4615C33.7883 18.4615 32.0808 15.9583 32.0808 12.2425V0.586699H27.5275V11.9296C27.5275 18.5007 31.1322 22.6076 37.5069 22.6076Z" fill="#0050B9"/>
<path d="M64.7424 22.6076C71.1929 22.6076 74.7218 18.5398 74.7218 11.9687V0.586699H70.1684V12.2425C70.1684 15.9974 68.5368 18.4615 64.7424 18.4615C61.0238 18.4615 59.3163 15.9583 59.3163 12.2425V0.586699H54.763V11.9296C54.763 18.5007 58.3677 22.6076 64.7424 22.6076Z" fill="#0050B9"/>
<path d="M93.7992 0C90.3463 0 87.6522 1.87745 86.5139 4.0678V0.586699H82.1882V21.9817H86.7416V10.9518C86.7416 6.6884 89.5494 4.49804 93.1542 4.49804C94.2925 4.49804 95.2411 4.73272 96 5.04563V0.312908C95.4688 0.156454 94.5581 0 93.7992 0Z" fill="#0050B9"/>
</svg>
