<svg width="14" height="15" viewBox="0 0 14 15" fill="none" xmlns="http://www.w3.org/2000/svg">
<path fill-rule="evenodd" clip-rule="evenodd" d="M12.9772 14.7598C12.4471 15.1575 11.6949 15.0502 11.2971 14.5201C9.2808 11.833 6.32367 10.0068 3.01804 9.40742L1.07603 9.05529C-0.324137 8.8014 -0.371978 6.81121 1.01437 6.49034L3.10513 6.00642C6.3662 5.25163 9.26453 3.38912 11.306 0.736422C11.7102 0.211203 12.4636 0.113093 12.9888 0.517286C13.514 0.921479 13.6121 1.67492 13.208 2.20013C11.2964 4.6841 8.74037 6.57381 5.83842 7.67748C8.76142 8.70128 11.3359 10.5731 13.2168 13.0797C13.6146 13.6098 13.5073 14.362 12.9772 14.7598Z" fill="#7CABF3" fill-opacity="0.58"/>
</svg>
